# xmcd
#
# Track frame offsets: 
#        150
#        11877
#        24135
#        37792
#        53857
#        74212
#        90477
#        104612
#        117815
#        131320
#
# Disc length: 1893 seconds
#
# Revision: 2
# Processed by: cddbd v1.5.2PL0 Copyright (c) Steve Scherf et al.
# Submitted via: ExactAudioCopy v0.99pb4
#
DISCID=7c07630a
DTITLE=Karen Dalton - It's So Hard To Tell Who's Going To Love You The
DTITLE=Best
DYEAR=1969
DGENRE=Rock
TTITLE0=Little Bit Of Rain
TTITLE1=Sweet Substitute
TTITLE2=Ribbon Bow
TTITLE3=I Love You More Than Words Can Say
TTITLE4=In The Evening (It's So Hard To Tell Who's Going To Love You T
TTITLE4=he Best)
TTITLE5=Blues On The Ceiling
TTITLE6=It Hurts Me, Too
TTITLE7=How Did The Feeling Feel For You
TTITLE8=Right, Wrong Or Ready
TTITLE9=Down On The Street (Don't You Follow Me Down)
EXTD=
EXTT0=
EXTT1=
EXTT2=
EXTT3=
EXTT4=
EXTT5=
EXTT6=
EXTT7=
EXTT8=
EXTT9=
PLAYORDER=
